<svg xmlns="http://www.w3.org/2000/svg" viewBox="0 0 361 137">
  <defs>
    <style>
      .cls-1 {
        fill: #00cec9;
      }

      .cls-2 {
        font-size: 55px;
        fill: #2d3436;
        font-family: MSReferenceSansSerif, MS Reference Sans Serif;
      }

      .cls-3 {
        letter-spacing: -0.01em;
      }

      .cls-4 {
        fill: none;
        stroke: #00cec9;
        stroke-miterlimit: 10;
      }
    </style>
  </defs>
  <title>Asset 1</title>
  <g id="Layer_2" data-name="Layer 2">
    <g id="logo">
      <g>
        <path class="cls-1" d="M112,58.34c-.51.56-1,1.09-1.59,1.61a3,3,0,0,0-4-.5l-.19.14a3,3,0,0,0-.75,4c-.65.37-1.32.72-2,1a3,3,0,0,0-3.68-1.71l-.23.07a3,3,0,0,0-2,3.57c-.73.15-1.48.26-2.23.35a3,3,0,0,0-3-2.77h-.27a3,3,0,0,0-2.94,2.79c-.76-.08-1.5-.2-2.24-.34A3,3,0,0,0,85,63L84.77,63A3,3,0,0,0,81.1,64.7c-.69-.32-1.36-.66-2-1a2.94,2.94,0,0,0-.77-4l-.19-.14a3,3,0,0,0-4,.52c-.56-.51-1.1-1-1.61-1.6a3,3,0,0,0,.49-4l-.14-.19a3,3,0,0,0-4-.75c-.37-.65-.71-1.33-1-2a3,3,0,0,0,1.71-3.69l-.07-.22a3,3,0,0,0-3.57-1.95c-.15-.73-.27-1.48-.36-2.23a3,3,0,0,0,2.77-3v-.25a3,3,0,0,0-2.79-3c.08-.75.2-1.5.34-2.23a3,3,0,0,0,.73.09A3,3,0,0,0,69.38,33l.07-.24a2.94,2.94,0,0,0-1.74-3.66c.31-.69.65-1.36,1-2a3,3,0,0,0,4-.78l.14-.19a3,3,0,0,0-.52-4c.51-.56,1-1.09,1.59-1.61A3,3,0,0,0,78,21l.19-.14a3,3,0,0,0,.74-4c.65-.37,1.32-.71,2-1a3,3,0,0,0,2.75,1.86,3.13,3.13,0,0,0,.94-.15l.22-.08a3,3,0,0,0,2-3.56c.73-.15,1.48-.27,2.23-.36a3,3,0,0,0,3,2.76h.28a3,3,0,0,0,2.93-2.79c.76.08,1.51.2,2.24.34a3,3,0,0,0,2,3.55l.22.07a3,3,0,0,0,.92.15,3,3,0,0,0,2.75-1.89c.69.31,1.37.65,2,1a3,3,0,0,0,.78,4l.19.14a3,3,0,0,0,1.74.57,2.94,2.94,0,0,0,2.29-1.09c.56.51,1.1,1,1.61,1.59a3,3,0,0,0-.48,4l.14.19A3,3,0,0,0,114,27.38a2.93,2.93,0,0,0,1.6-.48c.38.65.72,1.32,1,2a3,3,0,0,0-1.7,3.69,1.87,1.87,0,0,0,.07.22,3,3,0,0,0,2.81,2,3.38,3.38,0,0,0,.76-.1c.15.73.27,1.47.36,2.23a3,3,0,0,0-2.77,3v.31a3,3,0,0,0,2.79,2.94c-.09.76-.2,1.5-.35,2.24a3,3,0,0,0-3.54,2l-.08.23a3,3,0,0,0,1.74,3.67c-.31.69-.66,1.36-1,2a2.94,2.94,0,0,0-4,.77l-.14.19A3,3,0,0,0,112,58.34ZM92.74,20.06A20.16,20.16,0,1,0,112.9,40.21,20.16,20.16,0,0,0,92.74,20.06Z"/>
        <text class="cls-2" transform="translate(100.17 107.58)">O</text>
        <text class="cls-2" transform="translate(143.47 107.58) scale(0.7)">N</text>
        <text class="cls-2" transform="translate(172.26 107.58)">F</text>
        <text class="cls-2" transform="translate(203.87 107.58) scale(0.7)"><tspan class="cls-3">L</tspan><tspan x="30.08" y="0">OOR</tspan></text>
        <path class="cls-1" d="M84.36,102.87c-.51.56-1,1.09-1.6,1.6a3,3,0,0,0-4-.49l-.19.14a3,3,0,0,0-.75,4c-.65.37-1.32.71-2,1a3,3,0,0,0-3.68-1.71l-.23.07a3,3,0,0,0-2,3.56c-.73.15-1.48.27-2.23.36a3,3,0,0,0-3-2.77h-.27a3,3,0,0,0-2.95,2.79c-.75-.08-1.5-.2-2.23-.34a3,3,0,0,0-2-3.55l-.22-.07a3,3,0,0,0-3.67,1.74c-.69-.32-1.36-.66-2-1a3,3,0,0,0-.78-4l-.19-.13a3,3,0,0,0-4,.51c-.55-.5-1.09-1-1.6-1.59a3,3,0,0,0,.49-4l-.14-.2a3,3,0,0,0-4-.74c-.37-.66-.72-1.33-1-2a3,3,0,0,0,1.71-3.69l-.08-.22a3,3,0,0,0-3.56-2c-.15-.73-.27-1.48-.36-2.23a3,3,0,0,0,2.77-3v-.24a3,3,0,0,0-2.79-2.95c.08-.75.19-1.5.34-2.23a3,3,0,0,0,.73.09,3,3,0,0,0,2.82-2.06l.07-.24A2.94,2.94,0,0,0,40,73.66c.31-.69.65-1.37,1-2a2.93,2.93,0,0,0,1.58.46A3,3,0,0,0,45,70.86l.14-.2a3,3,0,0,0-.52-4c.5-.56,1-1.1,1.59-1.61a3,3,0,0,0,4,.49l.2-.15a3,3,0,0,0,.74-4c.65-.37,1.32-.72,2-1A3,3,0,0,0,56,62.21a2.81,2.81,0,0,0,.94-.16l.23-.07a3,3,0,0,0,1.94-3.57c.74-.15,1.48-.27,2.24-.36a3,3,0,0,0,2.95,2.77h.28A3,3,0,0,0,67.48,58c.76.08,1.5.19,2.24.34a3,3,0,0,0,2,3.54l.23.08a3,3,0,0,0,3.67-1.75c.69.32,1.36.66,2,1a3,3,0,0,0,.78,4l.19.14a3,3,0,0,0,1.74.57,3,3,0,0,0,2.29-1.09c.56.5,1.1,1,1.61,1.59a3,3,0,0,0-.48,4l.14.19a3,3,0,0,0,4,.74c.37.65.72,1.32,1,2a3,3,0,0,0-1.71,3.69c0,.07,0,.15.08.22a2.94,2.94,0,0,0,2.81,2,2.76,2.76,0,0,0,.75-.1c.15.74.27,1.48.36,2.24a2.94,2.94,0,0,0-2.76,3v.3a3,3,0,0,0,2.79,3c-.09.76-.2,1.5-.35,2.24a3,3,0,0,0-3.55,2l-.07.22A3,3,0,0,0,89,95.85c-.32.69-.66,1.37-1,2a3,3,0,0,0-4,.78l-.13.19A2.94,2.94,0,0,0,84.36,102.87ZM65.06,64.58A20.16,20.16,0,1,0,85.21,84.74,20.16,20.16,0,0,0,65.06,64.58Z"/>
        <rect class="cls-4" x="0.5" y="0.5" width="360" height="136" rx="12" ry="12"/>
      </g>
    </g>
  </g>
</svg>
